K-PAX*2001*[DVD9][PAL][ENG, POL]

General information:
Country: USA, Germany 
Release: 22 October 2001
Genre: Drama, Mystery, Sci-Fi 
Director: Iain Softley
Screenplay: Charles Leavitt, Gene Brewer (novel) 
Original Music: Edward Shearmur
Cinematography by: John Mathieson 
Duration: 1h 55mn
Language: English, Polish
Subtitles: Polish
Rating: 8.0/10 - 47102 votes

Cast:
Kevin Spacey  ...  Prot  
Jeff Bridges  ...  Dr. Mark Powell  
Mary McCormack  ...  Rachel Powell  
Alfre Woodard  ...  Dr. Claudia Villars  
David Patrick Kelly  ...  Howie  
Saul Williams  ...  Ernie  
Peter Gerety  ...  Sal  
Celia Weston  ...  Doris Archer  
Ajay Naidu  ...  Dr. Chakraborty  
Tracy Vilar  ...  Maria  
Melanee Murray  ...  Bess  
John Toles-Bey  ...  Russell  
Kimberly Scott  ...  Joyce Trexler  
Conchata Ferrell  ...  Betty McAllister  
Vincent Laresca  ...  Navarro  

Plot:
Prot is a patient at a mental hospital who claims to be from a far away planet. His psychiatrist tries to help him, only to begin to doubt his own explanations.

Specifications:
General
Format                           : MPEG-PS
Overall bit rate                 : 7 501 Kbps

Video
Format                           : MPEG Video
Format version                   : Version 2
Format settings, BVOP            : Yes
Format settings, Matrix          : Default
Format settings, GOP             : M=3, N=12
Bit rate mode                    : Variable
Bit rate                         : 5 702 Kbps
Width                            : 720 pixels
Height                           : 576 pixels
Display aspect ratio             : 16:9
Frame rate                       : 25.000 fps
Standard                         : PAL

Audio 1
Format                           : AC-3
Format/Info                      : Audio Coding 3
Mode extension                   : CM (complete main)
Bit rate mode                    : Constant
Bit rate                         : 448 Kbps
Channel(s)                       : 6 channels
Channel positions                : Front: L C R, Side: L R, LFE
Sampling rate                    : 48.0 KHz
Bit depth                        : 16 bits
Video delay                      : -280ms
Stream size                      : 61.1 MiB (6%)

Audio 2
Format                           : DTS
Format/Info                      : Digital Theater Systems
Bit rate mode                    : Constant
Bit rate                         : 755 Kbps
Channel(s)                       : 6 channels
Channel positions                : Front: L C R, Side: L R, LFE
Sampling rate                    : 48.0 KHz
Bit depth                        : 16 bits
Video delay                      : -323ms
Stream size                      : 103 MiB (10%)

Text
Format                           : RLE
Format/Info                      : Run-length encoding
Video delay                      : 2s 40ms
